<svg width="230" height="18" viewBox="0 0 230 18" fill="none" xmlns="http://www.w3.org/2000/svg">
<rect width="16" height="16" transform="translate(10 1)" fill="white" fill-opacity="0.01" style="mix-blend-mode:multiply"/>
<path d="M21.8821 4.42965L22.5246 3.6639C21.904 3.13853 21.1963 2.72553 20.4336 2.4435L20.0918 3.3823C20.745 3.62459 21.3508 3.97902 21.8821 4.42965Z" fill="#0F62FE"/>
<path d="M23.905 8L24.8889 7.7936C24.7506 6.99468 24.4734 6.22616 24.07 5.52285L23.2044 6C23.5499 6.622 23.7868 7.29836 23.905 8Z" fill="#0F62FE"/>
<path d="M20.0918 14.6177L20.4336 15.5565C21.1963 15.2745 21.904 14.8615 22.5246 14.3361L21.8821 13.5703C21.3508 14.021 20.745 14.3754 20.0918 14.6177Z" fill="#0F62FE"/>
<path d="M23.2044 12L24.07 12.5C24.4737 11.7886 24.7508 11.0126 24.8891 10.2064L23.905 10.033C23.7867 10.7242 23.5497 11.3897 23.2044 12Z" fill="#0F62FE"/>
<path d="M18 16V2C16.1435 2 14.363 2.7375 13.0503 4.05025C11.7375 5.36301 11 7.14348 11 9C11 10.8565 11.7375 12.637 13.0503 13.9497C14.363 15.2625 16.1435 16 18 16Z" fill="#0F62FE"/>
<g clip-path="url(#clip0_82_8138)">
<rect width="78" height="18" transform="translate(34)" fill="white" fill-opacity="0.01" style="mix-blend-mode:multiply"/>
<path d="M37.668 8.036L36.492 5.866H36.45V14H35.302V4.228H36.66L40.23 10.192L41.406 12.362H41.448V4.228H42.596V14H41.238L37.668 8.036ZM47.9644 14.168C47.4698 14.168 47.0218 14.0793 46.6204 13.902C46.2284 13.7247 45.8878 13.4727 45.5984 13.146C45.3184 12.81 45.0991 12.4133 44.9404 11.956C44.7911 11.4893 44.7164 10.9667 44.7164 10.388C44.7164 9.81867 44.7911 9.30067 44.9404 8.834C45.0991 8.36733 45.3184 7.97067 45.5984 7.644C45.8878 7.308 46.2284 7.05133 46.6204 6.874C47.0218 6.69667 47.4698 6.608 47.9644 6.608C48.4498 6.608 48.8838 6.69667 49.2664 6.874C49.6491 7.05133 49.9758 7.29867 50.2464 7.616C50.5171 7.924 50.7224 8.29267 50.8624 8.722C51.0118 9.15133 51.0864 9.62267 51.0864 10.136V10.668H45.8924V11.004C45.8924 11.312 45.9391 11.6013 46.0324 11.872C46.1351 12.1333 46.2751 12.362 46.4524 12.558C46.6391 12.754 46.8631 12.908 47.1244 13.02C47.3951 13.132 47.6984 13.188 48.0344 13.188C48.4918 13.188 48.8884 13.0807 49.2244 12.866C49.5698 12.6513 49.8358 12.3433 50.0224 11.942L50.8204 12.516C50.5871 13.0107 50.2231 13.412 49.7284 13.72C49.2338 14.0187 48.6458 14.168 47.9644 14.168ZM47.9644 7.546C47.6564 7.546 47.3764 7.602 47.1244 7.714C46.8724 7.81667 46.6531 7.966 46.4664 8.162C46.2891 8.358 46.1491 8.59133 46.0464 8.862C45.9438 9.12333 45.8924 9.41267 45.8924 9.73V9.828H49.8824V9.674C49.8824 9.03 49.7051 8.51667 49.3504 8.134C49.0051 7.742 48.5431 7.546 47.9644 7.546ZM52.2677 6.776H53.3597L54.1297 9.898L54.8997 13.062H54.9277L55.8097 9.898L56.7197 6.776H57.7137L58.6517 9.898L59.5477 13.062H59.5757L60.3177 9.898L61.1017 6.776H62.1517L60.2337 14H58.8477L57.8397 10.528L57.2097 8.33H57.1817L56.5657 10.528L55.5577 14H54.1997L52.2677 6.776ZM67.3984 6.776H68.5184V7.952H68.5744C68.761 7.49467 69.0317 7.15867 69.3864 6.944C69.7504 6.72 70.1844 6.608 70.6884 6.608C71.1364 6.608 71.5424 6.69667 71.9064 6.874C72.2704 7.05133 72.5784 7.30333 72.8304 7.63C73.0917 7.95667 73.2877 8.35333 73.4184 8.82C73.5584 9.28667 73.6284 9.80933 73.6284 10.388C73.6284 10.9667 73.5584 11.4893 73.4184 11.956C73.2877 12.4227 73.0917 12.8193 72.8304 13.146C72.5784 13.4727 72.2704 13.7247 71.9064 13.902C71.5424 14.0793 71.1364 14.168 70.6884 14.168C69.7084 14.168 69.0037 13.72 68.5744 12.824H68.5184V16.8H67.3984V6.776ZM70.3804 13.16C71.015 13.16 71.5144 12.964 71.8784 12.572C72.2424 12.1707 72.4244 11.648 72.4244 11.004V9.772C72.4244 9.128 72.2424 8.61 71.8784 8.218C71.5144 7.81667 71.015 7.616 70.3804 7.616C70.1284 7.616 69.8857 7.65333 69.6524 7.728C69.4284 7.79333 69.2324 7.88667 69.0644 8.008C68.8964 8.12933 68.761 8.27867 68.6584 8.456C68.565 8.624 68.5184 8.806 68.5184 9.002V11.69C68.5184 11.9233 68.565 12.1333 68.6584 12.32C68.761 12.4973 68.8964 12.6513 69.0644 12.782C69.2324 12.9033 69.4284 12.9967 69.6524 13.062C69.8857 13.1273 70.1284 13.16 70.3804 13.16ZM75.6795 14V6.776H76.7995V8.106H76.8695C77.0001 7.76067 77.2335 7.45267 77.5695 7.182C77.9055 6.91133 78.3675 6.776 78.9555 6.776H79.3895V7.896H78.7315C78.1248 7.896 77.6488 8.01267 77.3035 8.246C76.9675 8.47 76.7995 8.75467 76.7995 9.1V14H75.6795ZM83.6417 14.168C83.1564 14.168 82.7131 14.0793 82.3117 13.902C81.9104 13.7247 81.5651 13.4727 81.2757 13.146C80.9957 12.81 80.7764 12.4133 80.6177 11.956C80.4591 11.4893 80.3797 10.9667 80.3797 10.388C80.3797 9.81867 80.4591 9.30067 80.6177 8.834C80.7764 8.36733 80.9957 7.97067 81.2757 7.644C81.5651 7.308 81.9104 7.05133 82.3117 6.874C82.7131 6.69667 83.1564 6.608 83.6417 6.608C84.1271 6.608 84.5657 6.69667 84.9577 6.874C85.3591 7.05133 85.7044 7.308 85.9937 7.644C86.2831 7.97067 86.5071 8.36733 86.6657 8.834C86.8244 9.30067 86.9037 9.81867 86.9037 10.388C86.9037 10.9667 86.8244 11.4893 86.6657 11.956C86.5071 12.4133 86.2831 12.81 85.9937 13.146C85.7044 13.4727 85.3591 13.7247 84.9577 13.902C84.5657 14.0793 84.1271 14.168 83.6417 14.168ZM83.6417 13.174C84.2484 13.174 84.7431 12.9873 85.1257 12.614C85.5084 12.2407 85.6997 11.6713 85.6997 10.906V9.87C85.6997 9.10467 85.5084 8.53533 85.1257 8.162C84.7431 7.78867 84.2484 7.602 83.6417 7.602C83.0351 7.602 82.5404 7.78867 82.1577 8.162C81.7751 8.53533 81.5837 9.10467 81.5837 9.87V10.906C81.5837 11.6713 81.7751 12.2407 82.1577 12.614C82.5404 12.9873 83.0351 13.174 83.6417 13.174ZM88.9057 6.776H90.0257V15.12C90.0257 15.624 89.8997 16.03 89.6477 16.338C89.3957 16.646 88.999 16.8 88.4577 16.8H87.7297V15.82H88.9057V6.776ZM89.4657 5.082C89.223 5.082 89.0457 5.026 88.9337 4.914C88.831 4.79267 88.7797 4.63867 88.7797 4.452V4.27C88.7797 4.08333 88.831 3.934 88.9337 3.822C89.0457 3.70067 89.223 3.64 89.4657 3.64C89.7084 3.64 89.881 3.70067 89.9837 3.822C90.0957 3.934 90.1517 4.08333 90.1517 4.27V4.452C90.1517 4.63867 90.0957 4.79267 89.9837 4.914C89.881 5.026 89.7084 5.082 89.4657 5.082ZM95.2817 14.168C94.787 14.168 94.339 14.0793 93.9377 13.902C93.5457 13.7247 93.205 13.4727 92.9157 13.146C92.6357 12.81 92.4164 12.4133 92.2577 11.956C92.1084 11.4893 92.0337 10.9667 92.0337 10.388C92.0337 9.81867 92.1084 9.30067 92.2577 8.834C92.4164 8.36733 92.6357 7.97067 92.9157 7.644C93.205 7.308 93.5457 7.05133 93.9377 6.874C94.339 6.69667 94.787 6.608 95.2817 6.608C95.767 6.608 96.201 6.69667 96.5837 6.874C96.9664 7.05133 97.293 7.29867 97.5637 7.616C97.8344 7.924 98.0397 8.29267 98.1797 8.722C98.329 9.15133 98.4037 9.62267 98.4037 10.136V10.668H93.2097V11.004C93.2097 11.312 93.2564 11.6013 93.3497 11.872C93.4524 12.1333 93.5924 12.362 93.7697 12.558C93.9564 12.754 94.1804 12.908 94.4417 13.02C94.7124 13.132 95.0157 13.188 95.3517 13.188C95.809 13.188 96.2057 13.0807 96.5417 12.866C96.887 12.6513 97.153 12.3433 97.3397 11.942L98.1377 12.516C97.9044 13.0107 97.5404 13.412 97.0457 13.72C96.551 14.0187 95.963 14.168 95.2817 14.168ZM95.2817 7.546C94.9737 7.546 94.6937 7.602 94.4417 7.714C94.1897 7.81667 93.9704 7.966 93.7837 8.162C93.6064 8.358 93.4664 8.59133 93.3637 8.862C93.261 9.12333 93.2097 9.41267 93.2097 9.73V9.828H97.1997V9.674C97.1997 9.03 97.0224 8.51667 96.6677 8.134C96.3224 7.742 95.8604 7.546 95.2817 7.546ZM103.097 14.168C102.593 14.168 102.141 14.0793 101.739 13.902C101.338 13.7247 100.997 13.4727 100.717 13.146C100.447 12.8193 100.237 12.4227 100.087 11.956C99.9473 11.4893 99.8773 10.9667 99.8773 10.388C99.8773 9.80933 99.9473 9.28667 100.087 8.82C100.237 8.35333 100.447 7.95667 100.717 7.63C100.997 7.30333 101.338 7.05133 101.739 6.874C102.141 6.69667 102.593 6.608 103.097 6.608C103.816 6.608 104.39 6.76667 104.819 7.084C105.258 7.392 105.585 7.798 105.799 8.302L104.861 8.778C104.731 8.40467 104.516 8.11533 104.217 7.91C103.919 7.70467 103.545 7.602 103.097 7.602C102.761 7.602 102.467 7.658 102.215 7.77C101.963 7.87267 101.753 8.022 101.585 8.218C101.417 8.40467 101.291 8.63333 101.207 8.904C101.123 9.16533 101.081 9.45467 101.081 9.772V11.004C101.081 11.6387 101.249 12.1613 101.585 12.572C101.931 12.9733 102.435 13.174 103.097 13.174C104.003 13.174 104.656 12.754 105.057 11.914L105.869 12.46C105.636 12.9827 105.286 13.398 104.819 13.706C104.362 14.014 103.788 14.168 103.097 14.168ZM109.206 14C108.814 14 108.516 13.8927 108.31 13.678C108.114 13.454 108.016 13.1647 108.016 12.81V7.756H106.826V6.776H107.498C107.741 6.776 107.904 6.72933 107.988 6.636C108.082 6.53333 108.128 6.36067 108.128 6.118V4.774H109.136V6.776H110.718V7.756H109.136V13.02H110.606V14H109.206Z" fill="#161616"/>
</g>
<defs>
<clipPath id="clip0_82_8138">
<rect width="78" height="18" fill="white" transform="translate(34)"/>
</clipPath>
</defs>
</svg>
