<svg width="599" height="500" viewBox="0 0 599 500" fill="none" xmlns="http://www.w3.org/2000/svg">
<path d="M406.826 436.827C422.858 445.538 439.632 451.593 456.292 457.883C459.989 459.279 461.422 461.155 461.305 465.174C461.019 474.998 461.082 484.839 461.274 494.667C461.349 498.474 460.278 499.865 456.207 499.82C374.558 498.909 292.905 499.139 211.254 499.24C189.106 499.267 166.959 499.614 144.812 499.807C137.602 499.87 137.541 499.817 137.528 492.736C137.511 483.571 137.752 474.397 137.418 465.243C137.268 461.138 138.865 459.324 142.497 458.025C157.562 452.639 172.308 446.459 186.623 439.304C196.555 434.339 205.518 428.039 212.421 419.178C226.427 401.201 224.358 379.096 207.623 363.532C196.435 353.126 182.769 348.986 168.181 347.27C163.278 346.693 161.503 344.82 161.618 340.08C161.791 332.919 161.481 325.747 161.627 318.585C161.688 315.598 160.648 314.032 157.781 313.153C144.74 309.154 131.651 305.34 118.173 303.121C115.528 302.685 114.076 301.265 112.691 299.31C105.176 288.708 97.6044 278.146 90.097 267.539C85.726 261.363 85.7556 261.325 79.2549 265.494C65.0949 274.576 50.8616 283.547 36.8445 292.845C33.1508 295.295 31.3565 294.909 29.0408 291.15C20.0434 276.545 10.826 262.072 1.48829 247.681C-0.87072 244.046 -0.556343 242.117 3.37626 239.936C31.3468 224.425 59.2352 208.766 87.0992 193.064C134.99 166.076 182.845 139.024 230.714 111.997C237.788 108.002 244.857 103.997 252.359 99.7527C248.808 93.9867 248.237 88.4023 249.294 81.9641C250.814 72.7078 248.205 63.8532 242.876 55.8968C237.965 48.5642 233.427 40.9809 228.487 33.6688C226.432 30.627 226.555 28.8892 229.968 27.0587C246.113 18.3986 262.193 9.6148 278.223 0.741612C281.547 -1.0985 282.585 0.772817 283.827 3.22008C288.949 13.3187 293.775 23.5934 299.418 33.3957C305.862 44.5887 315.029 51.5409 328.975 48.7343C331.611 48.204 332.502 50.1388 333.473 51.846C339.812 62.9936 346.138 74.1493 352.402 85.3394C355.886 91.5616 360.058 97.4194 362.625 103.989C362.329 104.492 362.231 104.928 361.986 105.037C350.578 110.151 351.202 122.043 347.525 131.357C345.786 135.763 353.579 141.842 358.688 140.009C363.176 138.399 364.907 140.018 366.806 143.665C372.037 153.709 377.55 163.608 383.052 173.508C384.659 176.401 384.391 178.088 381.195 179.787C361.211 190.416 341.335 201.246 321.434 212.004C319.881 211.686 319.384 210.322 318.771 209.199C312.545 197.799 306.402 186.354 300.152 174.967C298.949 172.776 298.795 171.293 301.012 169.466C304.23 166.814 304.939 162.944 304.088 159.008C303.182 154.819 299.888 153.312 295.997 152.719C292.878 152.244 289.786 151.566 286.656 151.202C284.922 151 283.301 150.804 282.37 149.163C280.203 145.344 277.87 146.668 275.045 148.532C235.848 174.403 196.572 200.156 157.392 226.054C152.352 229.385 147.266 231.16 141.084 230.932C126.112 230.38 111.118 230.121 96.1372 230.242C85.4946 230.327 74.863 231.383 64.2174 231.684C59.7656 231.809 55.9339 233.332 51.9062 235.822C53.7227 230.859 87.397 213.418 93.1663 214.205C91.5657 217.225 84.9691 216.231 86.898 222.217C97.646 218.132 107.325 212.471 117.148 207.11C121.24 204.877 125.315 202.611 129.331 200.248C131.612 198.906 134.895 197.862 135.433 195.384C136.433 190.775 139.995 189.354 142.739 186.529C148.027 181.085 154.584 178.51 160.737 175.346C173.31 168.879 185.645 161.969 198.247 155.567C199.281 155.041 200.269 154.383 201.861 154.708C204.619 158.408 199.848 163.046 203.515 167.625C223.994 155.65 244.581 143.611 265.18 131.565C263.807 124.986 259.497 124.818 254.516 125.6C254.72 123.667 256.215 123.015 257.298 122.309C259.341 120.975 259.34 119.477 258.199 117.676C256.867 115.573 255.324 116.72 253.892 117.513C243.109 123.483 232.32 129.444 221.569 135.473C179.292 159.178 137.021 182.892 94.7632 206.632C70.5205 220.251 46.3087 233.926 21.5265 247.889C24.3548 252.607 26.5735 257.522 30.1046 261.735C31.5089 263.41 32.8231 263.266 34.4459 262.343C42.8427 257.569 51.2282 252.774 59.6589 248.06C63.2061 246.077 61.9897 243.579 60.0617 241.249C62.3568 240.005 64.2165 240.483 65.9956 240.481C95.6588 240.442 125.322 240.369 154.985 240.518C159.668 240.541 162.476 239.679 161.686 234.246C161.356 231.982 162.705 230.843 164.898 230.748C167.228 230.647 169.561 230.592 171.893 230.59C256.55 230.548 341.206 230.511 425.863 230.489C429.396 230.488 433.633 229.446 433.425 235.414C433.38 236.736 434.68 237.288 435.945 237.349C437.442 237.421 438.943 237.431 440.442 237.431C489.936 237.428 539.43 237.4 588.924 237.465C592.031 237.47 595.179 236.521 598.228 237.491C599.137 239.399 597.687 240.43 596.959 241.616C566.713 290.835 522.514 321.386 467.925 338.045C451.994 342.906 435.575 345.597 419.359 349.203C404.215 352.571 391.177 359.841 382.447 372.936C370.696 390.561 375.678 413.761 393.599 428.11C397.646 431.349 402.058 434.022 406.826 436.827ZM242.078 333.908C242.85 331.715 241.387 330.412 240.035 329.216C233.899 323.789 227.375 318.85 219.969 315.31C215.348 313.102 210.609 310.387 205.29 311.062C201.789 311.506 200.689 309.966 200.234 307.231C199.881 305.112 199.759 302.931 199.764 300.779C199.789 288.872 200.032 276.965 199.906 265.061C199.816 256.6 200.297 255.773 208.669 255.755C243.327 255.68 277.986 255.658 312.645 255.633C334.307 255.618 355.97 255.6 377.633 255.672C380.426 255.681 383.479 255.366 385.886 257.697C383.784 259.848 380.176 258.435 378.827 262.039C383.693 263.35 388.312 262.779 392.879 262.625C395.787 262.526 394.59 259.366 395.961 258.089C397.345 256.8 399.065 256.063 400.904 255.88C403.385 255.634 405.892 255.537 408.386 255.568C411.47 255.606 414.027 255.477 413.929 251.213C413.831 246.947 411.143 247.04 408.155 247.04C333.998 247.065 259.842 247.102 185.686 246.996C181.234 246.99 180.028 248.459 180.059 252.775C180.227 276.604 180.242 300.436 180.011 324.263C179.963 329.167 181.641 330.766 186.346 330.475C198.327 329.734 209.404 332.994 219.836 338.685C254.634 357.666 260.983 401.52 232.983 429.557C220.989 441.568 206.262 449.309 190.933 455.988C181.546 460.079 171.961 463.713 162.464 467.552C168.655 468.218 174.64 467.428 180.63 466.535C205.65 462.808 227.315 452.397 244.869 434.023C248.872 429.833 251.906 424.985 253.998 419.326C257.864 408.865 258.962 397.588 263.823 387.454C264.74 385.541 265.592 383.521 265.386 381.227C264.747 374.099 264.448 366.905 261.694 360.17C259.047 353.697 256.218 347.297 251.53 341.96C250.398 340.671 249.038 339.583 247.17 340.296C245.319 341.001 244.996 342.622 245.036 344.4C245.051 345.119 245.701 346.008 244.215 346.722C240.643 341.648 235.153 338.388 230.388 333.402C236.084 332.66 238.064 340.657 243.674 337.789C244.521 335.942 240.808 336.409 242.078 333.908ZM446.945 274.732C455.786 273.848 464.626 272.964 474.482 271.979C471.504 269.78 470.092 267.869 471.443 264.949C484.58 262.55 497.924 262.368 511.023 260.399C524.112 258.432 537.679 258.985 550.202 253.56C544.218 253.233 538.248 252.969 532.307 253.281C511.515 254.37 490.709 253.929 469.908 254.074C459.421 254.147 448.934 254.092 438.446 254.139C436.304 254.148 434.043 253.992 433.116 256.728C431.611 261.174 433.314 267.035 436.859 269.348C436.861 271.945 433.781 269.988 433.329 271.442C433.329 277.039 433.329 282.26 433.329 287.482C432.016 277.53 440.487 273.54 444.704 266.087C445.367 269.907 445.775 272.261 446.945 274.732ZM265.879 86.714C264.24 92.4739 266.845 96.792 269.975 100.991C272.338 99.9818 270.475 97.1688 273.198 96.7924C275.71 101.101 278.242 105.529 280.856 109.906C283.387 114.143 285.292 118.867 289.761 121.702C285.167 109.442 278.789 98.0721 271.975 85.7071C276.374 85.8149 279.18 85.7319 279.999 89.7884C280.444 91.9897 281.862 93.3719 284.658 93.9407C283.028 86.5933 280.324 80.5803 274.92 76.1926C273.201 75.8217 272.513 78.3367 270.492 77.2608C269.78 73.817 267.246 70.6069 268.053 66.6305C275.968 65.2084 284.845 61.3526 293.904 55.1889C289.943 55.6452 288.032 53.9515 286.479 51.7548C281.81 45.1469 278.128 38.0814 277.285 29.9031C276.944 26.5892 275.876 23.8519 273.224 21.4482C265.05 25.7605 256.962 30.0279 248.403 34.544C256.158 37.7876 263.086 40.5556 269.897 43.5839C273.779 45.3095 275.245 48.8285 276.389 53.1536C270.426 52.3036 267.295 44.1512 260.818 49.103C260.069 48.1589 259.603 47.4676 259.03 46.8807C258.508 46.3455 258.067 45.4946 256.746 46.0616C262.589 58.6743 267.177 71.6069 265.879 86.714ZM398.187 461.931C413.743 467.044 429.209 469.36 436.194 467.613C415.228 460.903 395.13 452.29 376.664 440.175C369.79 435.665 362.294 433.039 353.178 431.545C365.5 446.416 380.576 455.349 398.187 461.931ZM129.534 263.835C130.809 266.656 127.564 266.172 126.541 267.842C134.712 269.024 142.682 268.446 150.617 268.534C157.768 268.613 157.769 268.528 157.213 261.49C159.127 260.826 162.169 261.315 161.526 257.62C160.939 254.243 158.36 255.241 156.432 255.232C140.976 255.153 125.519 255.168 110.063 255.193C108.285 255.196 106.417 254.9 104.793 256.019C107.479 261.582 112.827 263.981 119.183 261.999C122.868 260.85 126.01 261.312 129.534 263.835ZM408.141 293.294C408.371 304.272 407.492 315.324 409.655 326.322C414.031 325.609 413.876 322.648 413.885 320.08C413.933 306.454 413.815 292.828 413.854 279.203C413.862 276.091 412.555 274.634 408.85 274.57C407.506 280.461 408.438 286.425 408.141 293.294ZM327.503 170.833C336.157 166.311 344.811 161.789 353.465 157.268C347.824 154.876 320.913 168.976 318.929 174.405C322.157 173.968 324.382 172.179 327.503 170.833ZM112.573 222.805C120.922 216.455 131.183 213.009 139.781 205.557C133 205.44 109.992 219.367 108.769 223.734C110.018 224.511 110.945 223.532 112.573 222.805ZM115.275 271.11C118.865 275.024 119.954 281.643 127.153 281.85C125.301 276.487 121.735 272.265 117.985 268.324C116.853 267.134 114.21 267.263 115.275 271.11ZM338.694 93.8388C334.601 86.0815 331.661 77.6558 325.667 70.3687C324.736 74.7291 334.313 91.802 339.444 95.8511C339.257 95.314 339.096 94.8494 338.694 93.8388ZM269.684 266.352C273.936 266.142 278.187 265.932 282.439 265.722C279.675 264.496 276.741 265.439 274.3 264.218C273.012 262.819 275.525 261.635 274.152 260.421C266.887 259.061 265.276 259.833 265.816 264.558C264.217 264.706 262.62 264.853 261.023 265.001C261.025 265.189 261.028 265.377 261.03 265.565C263.624 265.81 266.218 266.055 269.684 266.352Z" fill="black"/>
</svg>
